<?xml version="1.0" encoding="UTF-8" standalone="no"?>
<svg
   xmlns:ooo="http://xml.openoffice.org/svg/export"
   xmlns:dc="http://purl.org/dc/elements/1.1/"
   xmlns:cc="http://creativecommons.org/ns#"
   xmlns:rdf="http://www.w3.org/1999/02/22-rdf-syntax-ns#"
   xmlns:svg="http://www.w3.org/2000/svg"
   xmlns="http://www.w3.org/2000/svg"
   xmlns:sodipodi="http://sodipodi.sourceforge.net/DTD/sodipodi-0.dtd"
   xmlns:inkscape="http://www.inkscape.org/namespaces/inkscape"
   version="1.2"
   width="34.829197mm"
   height="21.872219mm"
   viewBox="0 0 3482.9198 2187.222"
   preserveAspectRatio="xMidYMid"
   fill-rule="evenodd"
   stroke-width="28.222"
   stroke-linejoin="round"
   xml:space="preserve"
   id="svg70"
   sodipodi:docname="Notes 0 Whole .svg"
   inkscape:version="1.0.1 (3bc2e813f5, 2020-09-07)">
  <metadata id="metadata74">
    <rdf:RDF>
      <cc:Work rdf:about="">
        <dc:format>image/svg+xml</dc:format>
        <dc:type rdf:resource="http://purl.org/dc/dcmitype/StillImage" />
      </cc:Work>
    </rdf:RDF>
  </metadata>
  <sodipodi:namedview
     pagecolor="#ffffff"
     bordercolor="#666666"
     borderopacity="1"
     objecttolerance="10"
     gridtolerance="10"
     guidetolerance="10"
     inkscape:pageopacity="0"
     inkscape:pageshadow="2"
     inkscape:window-width="1920"
     inkscape:window-height="1001"
     id="namedview72"
     showgrid="false"
     inkscape:zoom="5.7638891"
     inkscape:cx="65.856738"
     inkscape:cy="38.517578"
     inkscape:window-x="-9"
     inkscape:window-y="-9"
     inkscape:window-maximized="1"
     inkscape:current-layer="svg70"
     inkscape:document-rotation="0" />
  <defs class="ClipPathGroup" id="defs8">
    <clipPath id="presentation_clip_path" clipPathUnits="userSpaceOnUse">
      <rect x="0" y="0" width="3810" height="3810" id="rect2" />
    </clipPath>
    <clipPath id="presentation_clip_path_shrink" clipPathUnits="userSpaceOnUse">
      <rect x="3" y="3" width="3803" height="3803" id="rect5" />
    </clipPath>
  </defs>
  <defs class="TextShapeIndex" id="defs12">
    <g ooo:slide="id1" ooo:id-list="id3" id="g10" />
  </defs>
  <defs class="EmbeddedBulletChars" id="defs44">
    <!-- … die Bullet-Char-Definitionen bleiben unverändert … -->
  </defs>
  <g id="g49" transform="translate(-162.54039,-885.889)">
    <g id="id2" class="Master_Slide">
      <g id="bg-id2" class="Background" />
      <g id="bo-id2" class="BackgroundObjects" />
    </g>
  </g>
  <g class="SlideGroup" id="g68" transform="translate(-162.54039,-885.889)">
    <g id="g66">
      <g id="container-id1">
        <g id="id1" class="Slide" clip-path="url(#presentation_clip_path)">
          <g class="Page" id="g62">
            <g class="com.sun.star.drawing.ClosedBezierShape" id="g60">
              <g id="id3">
                <rect
                  class="BoundingBox"
                  stroke="none"
                  fill="none"
                  x="176"
                  y="899"
                  width="3458"
                  height="2162"
                  id="rect51" />
                <!-- Hauptform der Note jetzt vollständig schwarz gefüllt und umrissen -->
                <path
                  id="path53"
                  d="m 2532,1826 c -43,-149 -114,-304 -189,-415 -74,-111 -193,-206 -311,-259 -117,-52 -269,-55 -380,-29 -111,27 -235,98 -310,196 -74,98 -127,203 -144,345 -18,143 26,311 70,460 43,150 97,315 190,444 94,130 209,197 327,249 118,53 253,37 364,10 111,-27 218,-78 292,-175 75,-98 150,-217 169,-360 18,-143 -34,-316 -78,-466 z m 901,693 c -141,164 -350,301 -607,395 -256,95 -551,145 -854,145 -303,0 -604,-50 -872,-145 C 832,2820 605,2683 443,2519 282,2355 190,2169 178,1980 c -12,-190 56,-376 198,-540 141,-164 350,-301 607,-395 256,-95 551,-145 854,-145 303,0 603,50 872,145 268,94 494,231 656,395 162,164 253,350 265,539 12,190 -56,376 -197,540 z"
                  fill="#000000"
                  fill-opacity="1"
                  stroke="#000000"
                  stroke-opacity="1" />
                <!-- Umrisse ebenfalls schwarz -->
                <path
                  id="path55"
                  d="m 2532,1826 c -43,-149 -114,-304 -189,-415 -74,-111 -193,-206 -311,-259 -117,-52 -269,-55 -380,-29 -111,27 -235,98 -310,196 -74,98 -127,203 -144,345 -18,143 26,311 70,460 43,150 97,315 190,444 94,130 209,197 327,249 118,53 253,37 364,10 111,-27 218,-78 292,-175 75,-98 150,-217 169,-360 18,-143 -34,-316 -78,-466 z"
                  fill="none"
                  stroke="#000000" />
                <path
                  id="path57"
                  d="m 3433,2519 c -141,164 -350,301 -607,395 -256,95 -551,145 -854,145 -303,0 -604,-50 -872,-145 C 832,2820 605,2683 443,2519 282,2355 190,2169 178,1980 c -12,-190 56,-376 198,-540 141,-164 350,-301 607,-395 256,-95 551,-145 854,-145 303,0 603,50 872,145 268,94 494,231 656,395 162,164 253,350 265,539 12,190 -56,376 -197,540 z"
                  fill="none"
                  stroke="#000000" />
              </g>
            </g>
          </g>
        </g>
      </g>
    </g>
  </g>
</svg>

